<?xml version="1.0" encoding="utf-8"?>
<svg viewBox="18.0408 7 63.9204 85.739" xmlns="http://www.w3.org/2000/svg">
  <g>
    <path d="M81.376,45.998c-0.692-0.855-1.894-1.146-3.178-0.749L77.9,45.341c-0.74,0.23-1.469,0.672-2.108,1.238   c0.827-4.513,1.567-8.663,1.567-9.062c0,0,4.637-28.45-26.84-30.517C19.044,9.067,23.68,38.163,23.68,38.163   c0,0.322,0.478,3.069,1.096,6.478c0.009,0.956,0.041,1.83,0.083,2.594c-0.77-0.879-1.751-1.581-2.758-1.893l-0.297-0.092   c-1.283-0.397-2.485-0.106-3.177,0.749c-0.537,0.664-0.713,1.59-0.495,2.607l2.754,12.859c0.404,1.888,2.054,4.08,3.756,4.991   l1.082,0.579c0.56,0.3,1.099,0.451,1.602,0.451c0.174,0,0.342-0.019,0.502-0.055c0.472,1.864,0.885,3.372,1.116,4.201   c0.577,6.359,2.573,8.666,5.578,12.137c0.688,0.794,1.467,1.694,2.303,2.733c0.544,0.677,2.006,2.083,3.4,3.271   c2.764,2.355,3.949,2.789,4.745,2.902l0.162,0.023h0.164l9.729,0.04l0.174,0.001l0.173-0.025c0.842-0.119,1.997-0.559,4.716-2.942   c1.336-1.172,2.763-2.577,3.32-3.27c0.836-1.039,1.615-1.939,2.303-2.733c3.005-3.471,5.002-5.777,5.578-12.137   c0.23-0.824,0.639-2.316,1.106-4.164c0.092,0.011,0.186,0.018,0.281,0.018c0.503,0,1.043-0.151,1.603-0.451l1.081-0.579   c1.701-0.911,3.352-3.104,3.757-4.992l2.753-12.858C82.088,47.588,81.912,46.662,81.376,45.998z M26.847,64.937l-1.082-0.58   c-1.099-0.588-2.292-2.173-2.552-3.392l-2.753-12.858c-0.083-0.383-0.015-0.572,0.019-0.613c0.018-0.022,0.094-0.045,0.204-0.045   c0.119,0,0.263,0.025,0.417,0.073l0.297,0.092c1.118,0.346,2.314,1.653,2.562,2.797l3.103,14.363   c0.024,0.111,0.037,0.204,0.042,0.278C27.033,65.028,26.948,64.99,26.847,64.937z M62.145,84.288l3.658-13.211   c0.075-0.271-0.084-0.552-0.354-0.627s-0.553,0.083-0.628,0.354l-4.216,15.224c-1.585,1.589-4.477,4.175-5.568,4.33l-9.73-0.039   c-1.122-0.16-4.212-2.858-5.792-4.422l-4.379-15.099c-0.079-0.271-0.361-0.428-0.632-0.348c-0.271,0.079-0.426,0.361-0.348,0.632   l3.774,13.013c-3.921-4.709-6.066-6.144-6.634-12.893c0,0-2.132-7.577-3.242-13.913c0.886-3.404,2.612-11.581,3.782-26.974   c7.841,1.177,20.962,2.982,28.94,2.448c4.755-0.318,8.911-1.258,8.911-1.258c0.941,12.385,2.082,19.489,2.881,23.288   c-0.059,0.445-0.127,0.904-0.2,1.374l-1.752,8.104c-0.064,0.302-0.093,0.573-0.097,0.818c-0.837,3.47-1.581,6.113-1.581,6.113   C68.362,78.043,66.167,79.426,62.145,84.288z M79.543,48.107l-2.754,12.858c-0.261,1.219-1.453,2.804-2.552,3.392l-1.082,0.58   c-0.058,0.03-0.107,0.055-0.154,0.075c0.633-2.657,1.283-5.681,1.713-8.439l1.331-6.161c0.247-1.144,1.444-2.451,2.562-2.797   l0.296-0.092c0.155-0.047,0.299-0.073,0.418-0.073c0.109,0,0.186,0.023,0.204,0.045C79.558,47.535,79.625,47.724,79.543,48.107z"/>
    <path d="M58.427,70.962c-1.207,0.583-4.492,0.974-8.174,0.974c-3.683,0-6.968-0.391-8.174-0.974   c-0.333-0.161-0.732-0.088-0.986,0.18c-0.254,0.268-0.307,0.67-0.129,0.994c0.109,0.198,2.738,4.868,9.178,4.868h0.222   c6.439,0,9.069-4.67,9.179-4.868c0.177-0.324,0.125-0.727-0.13-0.994C59.158,70.874,58.76,70.801,58.427,70.962z M50.363,75.305   h-0.222c-2.824,0-4.771-1.046-6-2.066c2.332,0.358,5.065,0.397,6.111,0.397c1.044,0,3.779-0.039,6.111-0.397   C55.135,74.26,53.188,75.305,50.363,75.305z"/>
    <path d="M63.105,46.988c-0.243-0.067-5.995-1.627-11.353,0.124c-0.4,0.115-0.666,0.508-0.606,0.933   c0.277,1.948,1.717,11.695,3.019,13.592c0.289,0.505,0.958,2.056,0.528,3.082c-0.23,0.555-0.767,0.93-1.637,1.148l-0.084,0.021   l-2.478,1.192l-2.399-1.154l-0.162-0.059c-0.868-0.219-1.403-0.594-1.635-1.144c-0.432-1.025,0.221-2.552,0.527-3.088   c1.302-1.9,2.741-11.644,3.018-13.591c0.061-0.425-0.206-0.817-0.606-0.933c-5.357-1.75-11.11-0.19-11.353-0.124   c-0.452,0.126-0.716,0.594-0.591,1.046c0.125,0.452,0.594,0.718,1.045,0.592c0.02-0.005,0.759-0.204,1.923-0.378   c-0.209,0.295-0.33,0.628-0.33,0.983c0,1.18,1.314,2.138,2.935,2.138s2.935-0.958,2.935-2.138c0-0.432-0.177-0.833-0.479-1.169   c0.896,0.078,1.82,0.226,2.732,0.472c-0.693,4.678-1.895,11.135-2.631,12.141l-0.046,0.069c-0.155,0.263-1.488,2.618-0.648,4.629   c0.436,1.046,1.346,1.759,2.705,2.119l2.632,1.267c0.119,0.059,0.244,0.085,0.368,0.085c0.021,0,0.042-0.007,0.062-0.009   c0.021,0.002,0.042,0.009,0.062,0.009c0.124,0,0.249-0.026,0.368-0.085l2.633-1.267c1.357-0.36,2.268-1.073,2.704-2.119   c0.84-2.011-0.494-4.366-0.648-4.629l-0.046-0.069c-0.737-1.006-1.938-7.463-2.633-12.141c0.81-0.219,1.627-0.36,2.426-0.443   c-0.206,0.292-0.324,0.623-0.324,0.973c0,1.181,1.313,2.138,2.935,2.138s2.935-0.958,2.935-2.138c0-0.292-0.081-0.571-0.228-0.824   c1.193,0.175,1.953,0.38,1.975,0.386c0.451,0.125,0.919-0.14,1.044-0.592C63.822,47.582,63.558,47.114,63.105,46.988z"/>
    <path d="M68.07,41.979c0.092-0.267-0.049-0.557-0.316-0.648c-0.266-0.092-0.556,0.049-0.648,0.316   c-1.509,4.373,0.445,6.519,0.528,6.608c0.101,0.106,0.235,0.16,0.37,0.16c0.124,0,0.248-0.045,0.348-0.136   c0.205-0.19,0.217-0.512,0.029-0.719C68.314,47.485,66.775,45.731,68.07,41.979z"/>
    <path d="M33.235,41.33c-0.266,0.092-0.407,0.382-0.315,0.648c1.292,3.744-0.237,5.499-0.31,5.579   c-0.191,0.206-0.18,0.526,0.024,0.718c0.099,0.093,0.224,0.139,0.35,0.139c0.136,0,0.271-0.054,0.372-0.161   c0.083-0.089,2.038-2.235,0.528-6.608C33.792,41.379,33.501,41.238,33.235,41.33z"/>
  </g>
</svg>