<?xml version="1.0" encoding="utf-8"?>
<svg viewBox="12.7798 1.794 74.4395 96.408" xmlns="http://www.w3.org/2000/svg">
  <path d="M37.917,52.666c1.23-0.015,1.973-0.18,2.621-0.321c0.512-0.116,0.949-0.213,1.512-0.213c0.23,0,0.477,0.018,0.741,0.051  l1.872,0.243c0.041,0.007,0.087-0.009,0.111-0.043c0.024-0.032,0.024-0.072,0.016-0.112c-0.016-0.031-1.327-3.172-4.236-3.808  c-0.692-0.153-1.443-0.228-2.231-0.228c-2.071,0-3.924,0.524-4.38,0.822l-2.176,1.408c-0.043,0.026-0.068,0.074-0.055,0.122  c0.012,0.047,0.055,0.083,0.104,0.085c0,0.003,0.703,0.081,2.334,0.713c0.268,0.107,0.484,0.262,0.704,0.425  c0.555,0.402,1.179,0.856,2.927,0.856H37.917z"/>
  <path d="M66.057,49.057c-0.455-0.297-2.309-0.822-4.379-0.822c-0.789,0-1.539,0.075-2.232,0.228  c-2.909,0.636-4.22,3.776-4.235,3.808c-0.009,0.04-0.009,0.08,0.016,0.112c0.023,0.034,0.07,0.05,0.111,0.043l1.872-0.243  c0.265-0.033,0.51-0.051,0.74-0.051c0.563,0,1,0.097,1.513,0.213c0.648,0.142,1.392,0.307,2.62,0.321h0.138  c1.749,0,2.372-0.454,2.927-0.856c0.22-0.163,0.438-0.317,0.705-0.425c1.632-0.632,2.334-0.71,2.334-0.713  c0.048-0.002,0.092-0.038,0.104-0.085c0.013-0.048-0.012-0.096-0.056-0.122L66.057,49.057z"/>
  <path d="M86.5,44.832c-0.363-0.363-1.032-0.799-2.161-0.799c-0.812,0-1.555,0.219-1.939,0.404c-0.598,0.289-1.775,1.457-2.548,2.808  c0.025-0.277,0.051-0.551,0.075-0.826l0.811-4.398c0.466-1.659,0.81-3.918,0.989-5.829c0.037-0.428,0.039-0.863,0.03-1.301  c0.242-1.089,0.652-3.354,0.655-6.255c0-2.613-0.342-5.727-1.472-8.903C78.7,13.466,74.96,7.376,68.138,5.135  C63.812,3.436,56.827,2.042,50,1.794c-6.827,0.248-13.812,1.642-18.139,3.341C25.04,7.376,21.3,13.466,19.059,19.734  c-1.129,3.177-1.471,6.291-1.471,8.903c0.002,2.9,0.413,5.166,0.655,6.255c-0.009,0.438-0.007,0.873,0.031,1.301  c0.179,1.91,0.523,4.17,0.988,5.829l0.811,4.398c0.025,0.275,0.05,0.549,0.076,0.826c-0.773-1.352-1.951-2.52-2.548-2.808  c-0.385-0.186-1.127-0.404-1.939-0.404c-1.129,0-1.797,0.436-2.161,0.799c-0.333,0.337-0.732,0.939-0.721,1.898  c0.012,1.457,0.127,5.016,0.862,6.624l0.243,0.529c0.292,0.624,0.714,1.549,0.843,1.887c0.006,0.253,0.027,0.807,0.052,1.503  c0.167,5.066,0.219,5.885,0.287,6.198c0.005,0.043,0.009,0.099,0.015,0.161c0.382,3.804,1.736,6.011,4.023,6.556  c1.226,0.29,2.257,0.434,3.054,0.434c0.257,0,0.484-0.019,0.694-0.05c0.066,0.326,0.132,0.655,0.198,0.979  c0.582,2.809,1.129,5.463,1.357,8.155c0.019,0.254,0.104,0.492,0.255,0.703c2.09,2.937,2.946,3.816,4.251,5.152  c0.776,0.795,1.743,1.789,3.287,3.559c0.01,0.011,0.019,0.02,0.024,0.034c0.37,0.396,0.666,0.723,0.915,0.997  c1.481,1.641,1.69,1.812,5.437,4.57c0.024,0.017,0.046,0.031,0.064,0.047c4.442,2.891,5.917,3.433,8.671,3.433  c0.555,0,1.155-0.019,1.845-0.05c0.259-0.011,0.545-0.022,0.842-0.034c0.296,0.012,0.582,0.023,0.842,0.034  c0.689,0.031,1.289,0.05,1.845,0.05c2.754,0,4.229-0.542,8.671-3.433c0.019-0.016,0.04-0.03,0.064-0.047  c3.746-2.758,3.955-2.93,5.437-4.57c0.249-0.274,0.544-0.601,0.914-0.997c0.006-0.015,0.015-0.023,0.025-0.034  c1.543-1.77,2.51-2.764,3.286-3.559c1.305-1.336,2.161-2.216,4.251-5.152c0.151-0.211,0.236-0.449,0.255-0.703  c0.229-2.692,0.776-5.347,1.358-8.155c0.065-0.323,0.131-0.652,0.197-0.979c0.21,0.031,0.438,0.05,0.695,0.05  c0.797,0,1.828-0.144,3.054-0.434c2.287-0.545,3.642-2.752,4.023-6.556c0.006-0.062,0.009-0.118,0.015-0.161  c0.067-0.313,0.12-1.132,0.286-6.198c0.025-0.696,0.047-1.25,0.052-1.503c0.131-0.338,0.553-1.263,0.844-1.887l0.244-0.529  c0.734-1.608,0.85-5.167,0.862-6.624C87.232,45.771,86.832,45.169,86.5,44.832z M19.755,67.437  c-0.681-0.159-1.555-0.997-1.863-4.084c-0.019-0.2-0.034-0.343-0.062-0.47c-0.061-0.599-0.179-4.033-0.23-5.71  c-0.049-1.465-0.059-1.661-0.067-1.769c-0.041-0.409-0.225-0.847-1.087-2.704l-0.236-0.521c-0.324-0.7-0.576-2.922-0.604-5.323  c0.019,0,0.037,0,0.056,0c0.271,0,0.539,0.068,0.662,0.106c0.283,0.231,1.132,1.085,1.579,2.077  c0.434,0.952,0.604,2.077,0.705,2.747c0.077,0.5,0.12,0.771,0.305,1.067l0.119,0.199l0.09,0.072  c-0.049,1.036-0.114,2.074-0.157,2.314c-0.052,0.277-0.068,0.375-0.077,0.529c-0.006,0.043-0.009,0.136-0.049,0.388  c-0.16,1.084,0.157,5.185,1.85,8.446c0.661,1.275,0.877,2.291,0.933,2.97C21.192,67.73,20.585,67.635,19.755,67.437z M22.276,41.785  c-0.001-0.001-0.001-0.002-0.002-0.003c0.017-0.056,0.033-0.112,0.05-0.167c0,0.001,0.001,0.001,0.002,0.002L22.276,41.785z   M76.526,52.351c-0.179,1.886-0.366,3.777-0.542,5.636c-0.049,0.536-0.091,1.052-0.137,1.583l-2.608,7.798  c-0.077,0.223,0.049,0.46,0.265,0.535c0.049,0.015,0.092,0.021,0.138,0.021c0.176,0,0.343-0.111,0.4-0.288l1.465-4.379  c-0.283,2.625-0.807,5.214-1.326,7.724c-0.542,2.642-1.11,5.369-1.366,8.104c-1.801,2.508-2.543,3.271-3.75,4.505  c-0.797,0.823-1.794,1.839-3.38,3.667c-0.373,0.397-0.664,0.724-0.918,1.003c-1.302,1.435-1.352,1.49-4.985,4.169  c-3.915,2.55-4.914,2.971-7.202,2.955c-0.185-0.09-0.391-0.145-0.61-0.145c-0.736,0-1.374,0.013-1.969,0.028  c-0.595-0.016-1.232-0.028-1.969-0.028c-0.22,0-0.425,0.055-0.61,0.145c-2.288,0.016-3.287-0.405-7.203-2.955  c-3.634-2.679-3.684-2.734-4.985-4.169c-0.253-0.279-0.545-0.605-0.917-1.003c-1.586-1.828-2.584-2.844-3.381-3.667  c-1.206-1.234-1.948-1.997-3.749-4.505c-0.256-2.734-0.825-5.462-1.367-8.104c-0.519-2.51-1.042-5.099-1.326-7.724l1.465,4.379  c0.058,0.177,0.225,0.288,0.4,0.288c0.046,0,0.089-0.006,0.139-0.021c0.215-0.075,0.341-0.312,0.265-0.535l-2.609-7.798  c-0.046-0.531-0.087-1.047-0.136-1.583c-0.176-1.858-0.364-3.75-0.542-5.636c-0.212-2.194-0.429-4.433-0.628-6.617  c0.523-0.976,1.342-2.391,2.389-3.813c1-1.359,2.049-2.936,3.604-3.662c7.182-3.373,18.089-3.864,21.161-3.927  c3.072,0.063,13.979,0.554,21.161,3.927c1.555,0.726,2.604,2.302,3.604,3.662c1.047,1.422,1.865,2.837,2.389,3.813  C76.955,47.918,76.738,50.156,76.526,52.351z M77.724,41.785l-0.051-0.168c0.001-0.001,0.002-0.001,0.003-0.002  c0.017,0.056,0.033,0.111,0.05,0.167C77.725,41.783,77.724,41.784,77.724,41.785z M77.304,39.878c-1.24-0.82-2.136-2.076-3.38-2.92  c-1.213-0.822-2.556-1.425-3.94-1.895C63.491,32.86,56.851,31.839,50,31.759c-6.851,0.081-13.491,1.102-19.984,3.305  c-1.384,0.469-2.728,1.073-3.939,1.895c-1.244,0.844-2.14,2.1-3.381,2.92c0,0-0.652-4.259-0.963-6.17  c-0.284-1.743-0.673-3.568-0.632-5.343c0.042-1.812,0.087-3.71,0.853-5.388c0.747-1.633,2.125-2.916,3.529-3.988  c4.925-3.759,10.7-4.646,16.732-4.909c2.575-0.112,5.182-0.268,7.786-0.298c2.604,0.03,5.211,0.186,7.786,0.298  c6.032,0.264,11.806,1.15,16.731,4.909c1.405,1.072,2.782,2.355,3.529,3.988c0.767,1.678,0.811,3.577,0.853,5.388  c0.042,1.775-0.348,3.6-0.632,5.343C77.957,35.619,77.304,39.878,77.304,39.878z M83.791,52.179L83.555,52.7  c-0.863,1.857-1.047,2.295-1.088,2.704c-0.009,0.107-0.019,0.304-0.067,1.769c-0.052,1.677-0.169,5.111-0.229,5.71  c-0.028,0.127-0.044,0.27-0.062,0.47c-0.309,3.087-1.183,3.925-1.864,4.084c-0.829,0.198-1.437,0.294-1.864,0.335  c0.056-0.679,0.271-1.694,0.933-2.97c1.693-3.262,2.01-7.362,1.85-8.446c-0.04-0.252-0.043-0.345-0.049-0.388  c-0.01-0.154-0.025-0.252-0.077-0.529c-0.043-0.24-0.107-1.278-0.157-2.314l0.089-0.072l0.12-0.199  c0.185-0.296,0.229-0.567,0.306-1.067c0.102-0.67,0.271-1.795,0.704-2.747c0.447-0.992,1.297-1.845,1.58-2.077  c0.122-0.038,0.391-0.106,0.661-0.106c0.019,0,0.037,0,0.056,0C84.367,49.257,84.114,51.479,83.791,52.179z"/>
  <path d="M72.567,46.085l-4.599-1.675c-0.206-0.077-0.421-0.094-0.635-0.059l-13.322,2.272c-0.107,0.017-0.209,0.054-0.298,0.094  l-0.004-0.005c-0.021,0.01-0.055,0.03-0.095,0.057c-0.093,0.052-0.182,0.111-0.259,0.187c-0.702,0.574-2.096,2.231-1.545,6.163  c0.2,1.388,0.325,2.732,0.434,3.921c0.265,2.801,0.437,4.647,1.296,5.568c0.61,0.646,1.192,1.021,1.708,1.352  c0.339,0.215,0.635,0.406,0.894,0.646c0.286,0.269,0.495,1.096,0.299,1.918c-0.637-0.33-1.576-0.42-2.972,0.113  c-0.574,0.218-0.788,0.395-1.095,0.773c-0.046,0.053-0.093,0.113-0.161,0.192c-0.216,0.211-1.175,0.647-2.214,1.019  c-1.039-0.371-1.999-0.808-2.214-1.019c-0.068-0.079-0.115-0.14-0.161-0.192c-0.307-0.379-0.52-0.556-1.095-0.773  c-1.396-0.533-2.334-0.443-2.972-0.113c-0.196-0.822,0.013-1.649,0.299-1.918c0.259-0.24,0.555-0.432,0.893-0.646  c0.517-0.331,1.098-0.706,1.708-1.352c0.859-0.921,1.031-2.768,1.296-5.568c0.108-1.188,0.233-2.533,0.434-3.921  c0.551-3.932-0.843-5.589-1.544-6.163c-0.077-0.076-0.167-0.135-0.259-0.187c-0.04-0.026-0.074-0.046-0.095-0.057l-0.003,0.005  c-0.09-0.04-0.192-0.077-0.299-0.094l-13.322-2.272c-0.213-0.035-0.428-0.019-0.634,0.059l-4.599,1.675  c-0.646,0.23-0.976,0.945-0.742,1.589c0.234,0.645,0.945,0.977,1.591,0.744l4.292-1.562l12.937,2.206  c0.33,0.509,0.737,1.608,0.438,3.741c-0.2,1.439-0.33,2.812-0.44,4.026c-0.164,1.706-0.36,3.829-0.699,4.236  c-0.413,0.439-0.835,0.707-1.277,0.991c-0.391,0.255-0.798,0.517-1.203,0.893c-0.69,0.638-1.071,1.678-1.097,2.778l-4.079,6.117  c-0.132,0.195-0.077,0.457,0.117,0.589c0.071,0.046,0.151,0.069,0.235,0.069c0.135,0,0.27-0.066,0.353-0.19l3.514-5.263  c0.061,0.283,0.154,0.56,0.27,0.827c0.772,1.755,2.37,2.158,2.549,2.201c0.024,0.003,0.042,0.014,0.068,0.014l4.851,0.769  c0.182,0.122,0.4,0.196,0.629,0.196c0.058,0,0.122-0.003,0.184-0.016L50,71.027l0.079,0.014c0.061,0.013,0.125,0.016,0.183,0.016  c0.229,0,0.447-0.074,0.628-0.196l4.852-0.769c0.024,0,0.043-0.011,0.068-0.014c0.179-0.043,1.776-0.446,2.548-2.201  c0.117-0.268,0.209-0.544,0.271-0.827l3.514,5.263c0.083,0.124,0.219,0.19,0.353,0.19c0.085,0,0.164-0.023,0.234-0.069  c0.194-0.132,0.25-0.394,0.117-0.589l-4.078-6.117c-0.026-1.101-0.407-2.141-1.097-2.778c-0.405-0.376-0.812-0.638-1.203-0.893  c-0.442-0.284-0.865-0.552-1.277-0.991c-0.339-0.407-0.535-2.53-0.699-4.236c-0.11-1.214-0.239-2.587-0.44-4.026  c-0.298-2.133,0.107-3.232,0.438-3.741l12.938-2.206l4.291,1.562c0.646,0.233,1.356-0.099,1.591-0.744  C73.543,47.03,73.214,46.316,72.567,46.085z"/>
  <path d="M60.461,77.86c-0.05,0.006-0.2,0.023-0.572,0.043c-0.541,0.03-2.455-0.297-3.032-0.492  c-0.658-0.223-2.933-0.823-4.497-0.825c-0.812,0.005-1.4,0.566-1.785,0.939c-0.08,0.079-0.167,0.163-0.234,0.214  c-0.049,0-0.118-0.002-0.203-0.002l-0.044-0.007h-0.006c-0.005,0-0.008,0.007-0.013,0l-0.032,0.007c-0.017,0-0.026,0-0.042,0  c-0.016,0-0.025,0-0.042,0l-0.032-0.007c-0.004,0.007-0.007,0-0.013,0h-0.006l-0.044,0.007c-0.085,0-0.153,0.002-0.203,0.002  c-0.067-0.051-0.154-0.135-0.233-0.214c-0.386-0.373-0.973-0.935-1.785-0.939c-1.564,0.002-3.839,0.603-4.498,0.825  c-0.577,0.195-2.491,0.522-3.032,0.492c-0.373-0.02-0.523-0.037-0.573-0.043c-0.352-0.093-0.73,0.049-0.934,0.368  c-0.246,0.395-0.125,0.921,0.272,1.17c0.172,0.104,0.32,0.146,0.939,0.186c-0.274,0.157-0.484,0.424-0.548,0.757  c-0.124,0.613,0.273,1.206,0.88,1.328c1.064,0.212,3.023,0.698,3.78,1.109c1.447,0.783,2.9,1.243,5.997,1.27  c0.002,0,0.008,0,0.008,0c0.002,0,0.002,0,0.01,0c0.008,0,0.021,0,0.037,0c0.004,0,0.012,0,0.02,0c0.007,0,0.015,0,0.019,0  c0.016,0,0.028,0,0.037,0c0.007,0,0.007,0,0.01,0c0,0,0.006,0,0.008,0c3.097-0.026,4.551-0.486,5.997-1.27  c0.758-0.411,2.716-0.897,3.779-1.109c0.607-0.122,1.005-0.715,0.881-1.328c-0.063-0.333-0.273-0.6-0.548-0.757  c0.62-0.04,0.767-0.081,0.939-0.186c0.396-0.249,0.518-0.775,0.271-1.17C61.191,77.909,60.813,77.768,60.461,77.86z M54.995,80.793  c-0.983,0.532-2.041,0.977-4.976,0.995c-0.007,0-0.012,0-0.019,0c-0.007,0-0.013,0-0.02,0c-2.935-0.019-3.993-0.463-4.976-0.995  c-1.058-0.571-3.1-1.055-3.999-1.253c0.96-0.111,2.176-0.354,2.684-0.526c0.64-0.218,2.676-0.734,3.926-0.734  c0.003,0,0.008,0,0.015,0c0.136,0,0.449,0.301,0.619,0.467c0.148,0.136,0.296,0.281,0.457,0.4c0.413,0.301,0.677,0.295,1.206,0.28  c0.033,0.001,0.057,0,0.088,0.001c0.031-0.001,0.055,0,0.087-0.001c0.53,0.015,0.793,0.021,1.207-0.28  c0.161-0.119,0.308-0.265,0.456-0.4c0.17-0.166,0.482-0.467,0.619-0.467c0.006,0,0.012,0,0.014,0c1.251,0,3.286,0.517,3.927,0.734  c0.508,0.173,1.724,0.415,2.684,0.526C58.094,79.738,56.053,80.222,54.995,80.793z"/>
  <path d="M55.003,87.809C53.169,87.12,51.461,86.89,50,86.885c-1.461,0.005-3.169,0.235-5.003,0.924  c-0.312,0.117-0.462,0.462-0.349,0.77c0.118,0.308,0.459,0.466,0.767,0.352c1.691-0.633,3.247-0.847,4.585-0.852  c1.338,0.005,2.894,0.219,4.585,0.852c0.308,0.114,0.648-0.044,0.767-0.352C55.466,88.271,55.315,87.926,55.003,87.809z"/>
</svg>