<?xml version="1.0" encoding="utf-8"?>
<svg viewBox="17.0004 2 69.8533 97" xmlns="http://www.w3.org/2000/svg">
  <g>
    <path d="M28.873,51.729c0,0,3.674-3.802,5.447-4.056c1.773-0.252,14.188,4.056,14.566,5.448 C49.268,54.514,33.18,51.854,28.873,51.729z"/>
    <path d="M34.225,55.084c0,0,3.062-2.376,7.23-1.999c4.17,0.377,6.26,3.521,6.26,3.521S40.59,58.6,34.225,55.084z"/>
    <path d="M77.083,51.729c0,0-3.672-3.802-5.446-4.056c-1.773-0.252-14.188,4.056-14.568,5.448S72.775,51.854,77.083,51.729z"/>
    <path d="M71.73,55.084c0,0-3.061-2.376-7.229-1.999s-6.261,3.521-6.261,3.521S65.366,58.6,71.73,55.084z"/>
    <g>
      <path d="M59.268,68.9c0.01,0.025,0.996,2.646-0.969,3.709c-1.119,0.606-1.863,1.136-2.521,1.603 c-0.674,0.479-1.204,0.856-1.899,1.134c-0.25,0.102-0.5,0.168-0.746,0.215c-0.053,0.006-0.103,0.01-0.159,0.017 c-0.255,0.024-0.556,0.057-0.888,0.065c-0.354-0.007-0.681-0.039-0.946-0.065c-0.062-0.009-0.111-0.011-0.164-0.017 c-0.244-0.047-0.494-0.115-0.743-0.215c-0.695-0.277-1.227-0.654-1.902-1.134c-0.657-0.467-1.402-0.995-2.522-1.603 c-1.955-1.06-1.008-3.602-0.966-3.709l-0.709-0.274c-0.436,1.127-0.723,3.549,1.313,4.651c1.08,0.586,1.805,1.101,2.445,1.554 c0.688,0.487,1.281,0.908,2.061,1.222c0.218,0.086,0.434,0.147,0.647,0.198v0.044c0.08,0,0.188,0.01,0.303,0.021 c0.359,0.062,0.705,0.088,1.024,0.088c0.046,0,0.085-0.004,0.128-0.006c0.045,0.002,0.084,0.006,0.131,0.006 c0.318,0,0.666-0.025,1.023-0.088c0.115-0.012,0.223-0.021,0.303-0.021v-0.044c0.215-0.051,0.432-0.112,0.648-0.198 c0.779-0.312,1.372-0.732,2.061-1.222c0.639-0.453,1.363-0.968,2.443-1.554c2.036-1.104,1.749-3.524,1.312-4.651L59.268,68.9z"/>
      <path d="M67.307,75.865c-0.594-2.504-5.254-6.287-5.451-6.446l-0.478,0.591c0.046,0.038,4.655,3.777,5.188,6.03 c0.529,2.233,0.023,3.487,0.021,3.5l0.698,0.299C67.311,79.779,67.898,78.365,67.307,75.865z"/>
      <path d="M37.741,74.152c-1.112,0.804-1.831,2.229-1.974,3.92c-0.135,1.587,0.264,3.062,1.038,3.85l0.542-0.531 c-0.604-0.615-0.936-1.924-0.822-3.255c0.123-1.467,0.729-2.694,1.661-3.366c2.317-1.674,5.298-6.615,5.424-6.826l-0.651-0.392 C42.928,67.602,39.932,72.57,37.741,74.152z"/>
    </g>
    <path d="M83.264,22.107l-1.205-1.566C77.082,14.053,73.148,8.923,64.4,4.433C64.007,3.961,61.9,2,53.996,2 c-3,0-6.526,0.281-10.482,0.836c-2.688,0.378-3.693,1.19-4.012,1.543c-13.289,1.896-14.611,6.454-16.01,11.279 c-0.613,2.118-1.248,4.31-2.9,6.449c-4.135,5.357-3.759,8.729-3.359,12.297c0.152,1.366,0.309,2.778,0.24,4.386 c-0.148,3.509,0.523,5.336,1.174,6.294c-0.896,0.655-1.185,2.38-0.918,5.573c0.626,7.491,1.922,11.513,4.336,13.444l2.289,1.83 c0.234,1.855,1.664,11.006,7.859,18.53c1.338,1.625,2.549,3.31,3.617,4.69C40.265,94.895,43.215,99,48.627,99 c0.076,0,6.512,0,6.586,0c5.428,0,8.377-4.02,12.812-9.76c1.067-1.383,2.279-3.053,3.617-4.678 c6.194-7.524,7.625-16.725,7.858-18.58l2.288-1.855c2.416-1.934,3.713-5.967,4.337-13.458c0.267-3.188-0.021-4.918-0.915-5.575 c0.618-0.914,1.32-2.749,1.17-6.301c-0.068-1.607,0.09-3.02,0.242-4.386C87.021,30.838,87.396,27.465,83.264,22.107z M84.609,50.53 c-0.389,4.673-1.168,10.303-3.771,12.384l-2.782,2.227l-0.031,0.319c-0.01,0.101-1.065,10.151-7.559,18.036 c-1.353,1.645-2.57,3.184-3.646,4.574C62.458,93.721,59.85,97,55,97h-6.16c-4.837,0-7.442-3.279-11.807-8.93 c-1.076-1.391-2.294-2.949-3.646-4.594c-6.48-7.871-7.547-17.926-7.557-18.026l-0.032-0.314l-2.784-2.225 c-2.599-2.08-3.38-7.708-3.771-12.382c-0.308-3.688,0.294-4.229,0.3-4.234c-0.02,0.014-0.092,0.062-0.197-0.007l0.174-0.274 l2.455,2.447c-0.021,0.879-0.109,4.91,0.006,6.668c0.114,1.755,0.859,6.537,1.32,7.307c0.095,0.159,0.221,0.239,0.375,0.239 l0.184-0.004l0.113-0.134c0.147-0.172,0.126-0.305-0.014-1.164c-0.202-1.245-0.624-3.839-0.018-4.75 c0.238-0.354,0.496-0.689,0.754-1.021c0.855-1.107,1.74-2.254,1.844-4.107c0.064-1.15,0.031-2.256,0-3.324 c-0.03-1.08-0.063-2.195,0-3.389c0.116-2.224,1.207-9.189,2.973-11.71c1.514-2.162,5.393-5.451,6.666-6.532 c0.206-0.175,0.355-0.302,0.431-0.369c2.337-2.076,3.033-2.189,3.168-2.189h0.001l0.342,0.062c6.15,1.102,9.98,1.43,11.375,0.937 c1.219-0.43,2.596-0.575,3.702-0.689c0.824-0.086,1.535-0.161,2-0.332c0.08-0.029,0.185-0.044,0.314-0.044 c0.84,0,2.389,0.609,3.887,1.2c0.537,0.212,1.082,0.427,1.617,0.624c2.275,0.837,6.325,2.483,7.885,4.088 c1.625,1.671,2.634,3.753,2.634,5.435c0,0.482-0.081,0.865-0.152,1.205c-0.233,1.116-0.278,1.82,1.563,3.273 c0.393,0.31,0.73,0.568,1.021,0.792c1.498,1.146,1.62,1.239,1.62,2.384c0,0.405-0.007,1.11-0.019,1.981 c-0.03,2.618-0.076,6.573,0.02,8.646c0.032,0.697,0.055,1.438,0.08,2.18c0.07,2.188,0.145,4.452,0.436,5.719 c0.276,1.197,0.949,1.326,1.225,1.326c0.666,0,1.251-0.656,1.421-1.598c0.146-0.8,0.094-1.913,0.04-3.093 c-0.045-0.984-0.091-2.003-0.035-2.947c0.027-0.452,0.044-0.837,0.059-1.18c0.051-1.253,0.076-1.882,0.555-3.229 c0.504-1.415,0.798-1.577,1.24-1.821c0.078-0.043,0.158-0.087,0.244-0.139c0.477-0.286,0.9-1.196,1.433-2.57 c0.021-0.054,0.032-0.082,0.049-0.126l0.147,0.244c-0.084,0.043-0.166-0.012-0.166-0.012C84.316,46.301,84.919,46.843,84.609,50.53 z"/>
    <path d="M63.371,78.753l-0.463-0.603c0,0-0.332,0.25-0.824,0.647c-0.572-0.036-2.568-0.147-4.87-0.147 c-1.573,0-2.958,0.053-4.118,0.158c-1.137,0.103-2.688,0.154-4.607,0.154c-2.912,0-5.734-0.119-6.447-0.15 c-0.503-0.405-0.843-0.662-0.843-0.662l-0.464,0.603l0.92,0.726l0.004,0.004c0.969,0.789,2.324,1.97,3.297,3.113 c1.569,1.846,4.148,1.78,7.096,1.758c0.351,0.004,0.69,0.006,1.021,0.006c2.506,0,4.693-0.131,6.08-1.764 c0.973-1.145,2.33-2.324,3.298-3.113l0.003-0.002L63.371,78.753z"/>
  </g>
</svg>